<svg version="1.1" viewBox="0.0 0.0 1038.0 642.0" fill="none" stroke="none" stroke-linecap="square" stroke-miterlimit="10" width="1038" height="642" xmlns:xlink="http://www.w3.org/1999/xlink" xmlns="http://www.w3.org/2000/svg"><path fill="#ffffff" d="M0 0L1038.0 0L1038.0 642.0L0 642.0L0 0Z" fill-rule="nonzero"/><path stroke="#333333" stroke-width="1.0" stroke-linecap="butt" d="M112.5 602.5L1005.5 602.5" fill-rule="nonzero"/><path stroke="#cccccc" stroke-width="1.0" stroke-linecap="butt" d="M112.5 473.5L1005.5 473.5" fill-rule="nonzero"/><path stroke="#cccccc" stroke-width="1.0" stroke-linecap="butt" d="M112.5 343.5L1005.5 343.5" fill-rule="nonzero"/><path stroke="#cccccc" stroke-width="1.0" stroke-linecap="butt" d="M112.5 214.5L1005.5 214.5" fill-rule="nonzero"/><path stroke="#cccccc" stroke-width="1.0" stroke-linecap="butt" d="M112.5 84.5L1005.5 84.5" fill-rule="nonzero"/><clipPath id="id_0"><path d="M112.1 84.5L1005.9 84.5L1005.9 602.9L112.1 602.9L112.1 84.5Z" clip-rule="nonzero"/></clipPath><path fill="#ff0000" fill-opacity="0.3019608" clip-path="url(#id_0)" d="M112.1 84.5L126.2873 84.5L140.47461 84.5L154.66191 84.5L168.84921 84.5L183.03651 84.5L197.22382 84.5L211.41112 84.5L225.59842 84.5L239.78572 110.53205L253.97302 128.60957L268.1603 145.04297L282.34763 224.16917L296.5349 240.72511L310.72223 384.29456L324.90952 360.52014L339.09683 380.4144L353.28412 385.1386L367.47144 404.404L381.65872 397.79642L395.84604 413.95148L410.03333 407.23694L424.22064 432.78262L438.40793 428.9413L452.59525 443.16092L466.78253 431.98273L480.96985 444.59088L495.15714 454.87833L509.34445 458.15784L523.53174 458.03534L537.71906 463.3923L551.9064 457.607L566.0936 470.33932L580.28094 472.6421L594.46826 479.7837L608.6556 475.17438L622.84283 483.76263L637.03015 485.13242L651.21747 498.4953L665.4048 499.84393L679.59204 499.80478L693.77936 509.03674L707.9667 495.19296L722.154 496.79898L736.34125 499.88907L750.52856 513.95996L764.7159 516.2853L778.9032 505.58707L793.09045 505.968L807.2778 506.57883L821.4651 510.83005L835.6524 515.32184L849.83966 526.06854L864.027 515.29236L878.2143 515.5215L892.4016 515.3463L906.58887 519.2255L920.7762 518.28406L934.9635 520.43054L949.1508 533.647L963.3381 523.9882L977.5254 525.7747L991.7127 527.82544L1005.9 527.6103L1005.9 602.9L991.7127 602.9L977.5254 602.9L963.3381 602.9L949.1508 602.9L934.9635 602.9L920.7762 602.9L906.58887 602.9L892.4016 602.9L878.2143 602.9L864.027 602.9L849.83966 602.9L835.6524 602.9L821.4651 602.9L807.2778 602.9L793.09045 602.9L778.9032 602.9L764.7159 602.9L750.52856 602.9L736.34125 602.9L722.154 602.9L707.9667 602.9L693.77936 602.9L679.59204 602.9L665.4048 602.9L651.21747 602.9L637.03015 602.9L622.84283 602.9L608.6556 602.9L594.46826 602.9L580.28094 602.9L566.0936 602.9L551.9064 602.9L537.71906 602.9L523.53174 602.9L509.34445 602.9L495.15714 602.9L480.96985 602.9L466.78253 602.9L452.59525 602.9L438.40793 602.9L424.22064 602.9L410.03333 602.9L395.84604 602.9L381.65872 602.9L367.47144 602.9L353.28412 602.9L339.09683 602.9L324.90952 602.9L310.72223 602.9L296.5349 602.9L282.34763 602.9L268.1603 602.9L253.97302 602.9L239.78572 602.9L225.59842 602.9L211.41112 602.9L197.22382 602.9L183.03651 602.9L168.84921 602.9L154.66191 602.9L140.47461 602.9L126.2873 602.9L112.1 602.9Z" fill-rule="nonzero"/><path stroke="#ff0000" stroke-width="2.0" stroke-linecap="butt" clip-path="url(#id_0)" d="M112.1 84.5L126.2873 84.5L140.47461 84.5L154.66191 84.5L168.84921 84.5L183.03651 84.5L197.22382 84.5L211.41112 84.5L225.59842 84.5L239.78572 110.53205L253.97302 128.60957L268.1603 145.04297L282.34763 224.16917L296.5349 240.72511L310.72223 384.29456L324.90952 360.52014L339.09683 380.4144L353.28412 385.1386L367.47144 404.404L381.65872 397.79642L395.84604 413.95148L410.03333 407.23694L424.22064 432.78262L438.40793 428.9413L452.59525 443.16092L466.78253 431.98273L480.96985 444.59088L495.15714 454.87833L509.34445 458.15784L523.53174 458.03534L537.71906 463.3923L551.9064 457.607L566.0936 470.33932L580.28094 472.6421L594.46826 479.7837L608.6556 475.17438L622.84283 483.76263L637.03015 485.13242L651.21747 498.4953L665.4048 499.84393L679.59204 499.80478L693.77936 509.03674L707.9667 495.19296L722.154 496.79898L736.34125 499.88907L750.52856 513.95996L764.7159 516.2853L778.9032 505.58707L793.09045 505.968L807.2778 506.57883L821.4651 510.83005L835.6524 515.32184L849.83966 526.06854L864.027 515.29236L878.2143 515.5215L892.4016 515.3463L906.58887 519.2255L920.7762 518.28406L934.9635 520.43054L949.1508 533.647L963.3381 523.9882L977.5254 525.7747L991.7127 527.82544L1005.9 527.6103" fill-rule="nonzero"/><path fill="#000000" fill-opacity="0.0" clip-path="url(#id_0)" d="M115.1 84.5C115.1 86.15685 113.75685 87.5 112.1 87.5C110.443146 87.5 109.1 86.15685 109.1 84.5C109.1 82.84315 110.443146 81.5 112.1 81.5C113.75685 81.5 115.1 82.84315 115.1 84.5Z" fill-rule="nonzero"/><path fill="#000000" fill-opacity="0.0" clip-path="url(#id_0)" d="M129.28731 84.5C129.28731 86.15685 127.94415 87.5 126.2873 87.5C124.63045 87.5 123.2873 86.15685 123.2873 84.5C123.2873 82.84315 124.63045 81.5 126.2873 81.5C127.94415 81.5 129.28731 82.84315 129.28731 84.5Z" fill-rule="nonzero"/><path fill="#000000" fill-opacity="0.0" clip-path="url(#id_0)" d="M143.47461 84.5C143.47461 86.15685 142.13145 87.5 140.47461 87.5C138.81775 87.5 137.47461 86.15685 137.47461 84.5C137.47461 82.84315 138.81775 81.5 140.47461 81.5C142.13145 81.5 143.47461 82.84315 143.47461 84.5Z" fill-rule="nonzero"/><path fill="#000000" fill-opacity="0.0" clip-path="url(#id_0)" d="M157.66191 84.5C157.66191 86.15685 156.31876 87.5 154.66191 87.5C153.00505 87.5 151.66191 86.15685 151.66191 84.5C151.66191 82.84315 153.00505 81.5 154.66191 81.5C156.31876 81.5 157.66191 82.84315 157.66191 84.5Z" fill-rule="nonzero"/><path fill="#000000" fill-opacity="0.0" clip-path="url(#id_0)" d="M171.84921 84.5C171.84921 86.15685 170.50606 87.5 168.84921 87.5C167.19235 87.5 165.84921 86.15685 165.84921 84.5C165.84921 82.84315 167.19235 81.5 168.84921 81.5C170.50606 81.5 171.84921 82.84315 171.84921 84.5Z" fill-rule="nonzero"/><path fill="#000000" fill-opacity="0.0" clip-path="url(#id_0)" d="M186.03651 84.5C186.03651 86.15685 184.69336 87.5 183.03651 87.5C181.37965 87.5 180.03651 86.15685 180.03651 84.5C180.03651 82.84315 181.37965 81.5 183.03651 81.5C184.69336 81.5 186.03651 82.84315 186.03651 84.5Z" fill-rule="nonzero"/><path fill="#000000" fill-opacity="0.0" clip-path="url(#id_0)" d="M200.22382 84.5C200.22382 86.15685 198.88066 87.5 197.22382 87.5C195.56696 87.5 194.22382 86.15685 194.22382 84.5C194.22382 82.84315 195.56696 81.5 197.22382 81.5C198.88066 81.5 200.22382 82.84315 200.22382 84.5Z" fill-rule="nonzero"/><path fill="#000000" fill-opacity="0.0" clip-path="url(#id_0)" d="M214.41112 84.5C214.41112 86.15685 213.06796 87.5 211.41112 87.5C209.75426 87.5 208.41112 86.15685 208.41112 84.5C208.41112 82.84315 209.75426 81.5 211.41112 81.5C213.06796 81.5 214.41112 82.84315 214.41112 84.5Z" fill-rule="nonzero"/><path fill="#000000" fill-opacity="0.0" clip-path="url(#id_0)" d="M228.59842 84.5C228.59842 86.15685 227.25526 87.5 225.59842 87.5C223.94156 87.5 222.59842 86.15685 222.59842 84.5C222.59842 82.84315 223.94156 81.5 225.59842 81.5C227.25526 81.5 228.59842 82.84315 228.59842 84.5Z" fill-rule="nonzero"/><path fill="#000000" fill-opacity="0.0" clip-path="url(#id_0)" d="M242.78572 110.53205C242.78572 112.1889 241.44257 113.53205 239.78572 113.53205C238.12886 113.53205 236.78572 112.1889 236.78572 110.53205C236.78572 108.87519 238.12886 107.53205 239.78572 107.53205C241.44257 107.53205 242.78572 108.87519 242.78572 110.53205Z" fill-rule="nonzero"/><path fill="#000000" fill-opacity="0.0" clip-path="url(#id_0)" d="M256.97302 128.60957C256.97302 130.26642 255.62987 131.60957 253.97302 131.60957C252.31616 131.60957 250.97302 130.26642 250.97302 128.60957C250.97302 126.95271 252.31616 125.609566 253.97302 125.609566C255.62987 125.609566 256.97302 126.95271 256.97302 128.60957Z" fill-rule="nonzero"/><path fill="#000000" fill-opacity="0.0" clip-path="url(#id_0)" d="M271.1603 145.04297C271.1603 146.69981 269.81717 148.04297 268.1603 148.04297C266.50345 148.04297 265.1603 146.69981 265.1603 145.04297C265.1603 143.38611 266.50345 142.04297 268.1603 142.04297C269.81717 142.04297 271.1603 143.38611 271.1603 145.04297Z" fill-rule="nonzero"/><path fill="#000000" fill-opacity="0.0" clip-path="url(#id_0)" d="M285.34763 224.16917C285.34763 225.82602 284.0045 227.16917 282.34763 227.16917C280.69077 227.16917 279.34763 225.82602 279.34763 224.16917C279.34763 222.51231 280.69077 221.16917 282.34763 221.16917C284.0045 221.16917 285.34763 222.51231 285.34763 224.16917Z" fill-rule="nonzero"/><path fill="#000000" fill-opacity="0.0" clip-path="url(#id_0)" d="M299.5349 240.72511C299.5349 242.38197 298.19177 243.72511 296.5349 243.72511C294.87805 243.72511 293.5349 242.38197 293.5349 240.72511C293.5349 239.06827 294.87805 237.72511 296.5349 237.72511C298.19177 237.72511 299.5349 239.06827 299.5349 240.72511Z" fill-rule="nonzero"/><path fill="#000000" fill-opacity="0.0" clip-path="url(#id_0)" d="M313.72223 384.29456C313.72223 385.95142 312.3791 387.29456 310.72223 387.29456C309.06537 387.29456 307.72223 385.95142 307.72223 384.29456C307.72223 382.6377 309.06537 381.29456 310.72223 381.29456C312.3791 381.29456 313.72223 382.6377 313.72223 384.29456Z" fill-rule="nonzero"/><path fill="#000000" fill-opacity="0.0" clip-path="url(#id_0)" d="M327.90952 360.52014C327.90952 362.177 326.56638 363.52014 324.90952 363.52014C323.25266 363.52014 321.90952 362.177 321.90952 360.52014C321.90952 358.8633 323.25266 357.52014 324.90952 357.52014C326.56638 357.52014 327.90952 358.8633 327.90952 360.52014Z" fill-rule="nonzero"/><path fill="#000000" fill-opacity="0.0" clip-path="url(#id_0)" d="M342.09683 380.4144C342.09683 382.07126 340.7537 383.4144 339.09683 383.4144C337.43997 383.4144 336.09683 382.07126 336.09683 380.4144C336.09683 378.75754 337.43997 377.4144 339.09683 377.4144C340.7537 377.4144 342.09683 378.75754 342.09683 380.4144Z" fill-rule="nonzero"/><path fill="#000000" fill-opacity="0.0" clip-path="url(#id_0)" d="M356.28412 385.1386C356.28412 386.79547 354.94098 388.1386 353.28412 388.1386C351.62726 388.1386 350.28412 386.79547 350.28412 385.1386C350.28412 383.48175 351.62726 382.1386 353.28412 382.1386C354.94098 382.1386 356.28412 383.48175 356.28412 385.1386Z" fill-rule="nonzero"/><path fill="#000000" fill-opacity="0.0" clip-path="url(#id_0)" d="M370.47144 404.404C370.47144 406.06085 369.1283 407.404 367.47144 407.404C365.81458 407.404 364.47144 406.06085 364.47144 404.404C364.47144 402.74713 365.81458 401.404 367.47144 401.404C369.1283 401.404 370.47144 402.74713 370.47144 404.404Z" fill-rule="nonzero"/><path fill="#000000" fill-opacity="0.0" clip-path="url(#id_0)" d="M384.65872 397.79642C384.65872 399.45328 383.31558 400.79642 381.65872 400.79642C380.00186 400.79642 378.65872 399.45328 378.65872 397.79642C378.65872 396.13956 380.00186 394.79642 381.65872 394.79642C383.31558 394.79642 384.65872 396.13956 384.65872 397.79642Z" fill-rule="nonzero"/><path fill="#000000" fill-opacity="0.0" clip-path="url(#id_0)" d="M398.84604 413.95148C398.84604 415.60834 397.5029 416.95148 395.84604 416.95148C394.18918 416.95148 392.84604 415.60834 392.84604 413.95148C392.84604 412.29465 394.18918 410.95148 395.84604 410.95148C397.5029 410.95148 398.84604 412.29465 398.84604 413.95148Z" fill-rule="nonzero"/><path fill="#000000" fill-opacity="0.0" clip-path="url(#id_0)" d="M413.03333 407.23694C413.03333 408.89377 411.6902 410.23694 410.03333 410.23694C408.37646 410.23694 407.03333 408.89377 407.03333 407.23694C407.03333 405.58008 408.37646 404.23694 410.03333 404.23694C411.6902 404.23694 413.03333 405.58008 413.03333 407.23694Z" fill-rule="nonzero"/><path fill="#000000" fill-opacity="0.0" clip-path="url(#id_0)" d="M427.22064 432.78262C427.22064 434.43948 425.8775 435.78262 424.22064 435.78262C422.56378 435.78262 421.22064 434.43948 421.22064 432.78262C421.22064 431.1258 422.56378 429.78262 424.22064 429.78262C425.8775 429.78262 427.22064 431.1258 427.22064 432.78262Z" fill-rule="nonzero"/><path fill="#000000" fill-opacity="0.0" clip-path="url(#id_0)" d="M441.40793 428.9413C441.40793 430.59818 440.0648 431.9413 438.40793 431.9413C436.75107 431.9413 435.40793 430.59818 435.40793 428.9413C435.40793 427.28445 436.75107 425.9413 438.40793 425.9413C440.0648 425.9413 441.40793 427.28445 441.40793 428.9413Z" fill-rule="nonzero"/><path fill="#000000" fill-opacity="0.0" clip-path="url(#id_0)" d="M455.59525 443.16092C455.59525 444.81778 454.2521 446.16092 452.59525 446.16092C450.9384 446.16092 449.59525 444.81778 449.59525 443.16092C449.59525 441.50406 450.9384 440.16092 452.59525 440.16092C454.2521 440.16092 455.59525 441.50406 455.59525 443.16092Z" fill-rule="nonzero"/><path fill="#000000" fill-opacity="0.0" clip-path="url(#id_0)" d="M469.78253 431.98273C469.78253 433.6396 468.4394 434.98273 466.78253 434.98273C465.12567 434.98273 463.78253 433.6396 463.78253 431.98273C463.78253 430.32587 465.12567 428.98273 466.78253 428.98273C468.4394 428.98273 469.78253 430.32587 469.78253 431.98273Z" fill-rule="nonzero"/><path fill="#000000" fill-opacity="0.0" clip-path="url(#id_0)" d="M483.96985 444.59088C483.96985 446.24774 482.6267 447.59088 480.96985 447.59088C479.313 447.59088 477.96985 446.24774 477.96985 444.59088C477.96985 442.93402 479.313 441.59088 480.96985 441.59088C482.6267 441.59088 483.96985 442.93402 483.96985 444.59088Z" fill-rule="nonzero"/><path fill="#000000" fill-opacity="0.0" clip-path="url(#id_0)" d="M498.15714 454.87833C498.15714 456.5352 496.814 457.87833 495.15714 457.87833C493.50027 457.87833 492.15714 456.5352 492.15714 454.87833C492.15714 453.22147 493.50027 451.87833 495.15714 451.87833C496.814 451.87833 498.15714 453.22147 498.15714 454.87833Z" fill-rule="nonzero"/><path fill="#000000" fill-opacity="0.0" clip-path="url(#id_0)" d="M512.3444 458.15784C512.3444 459.8147 511.0013 461.15784 509.34445 461.15784C507.6876 461.15784 506.34445 459.8147 506.34445 458.15784C506.34445 456.501 507.6876 455.15784 509.34445 455.15784C511.0013 455.15784 512.3444 456.501 512.3444 458.15784Z" fill-rule="nonzero"/><path fill="#000000" fill-opacity="0.0" clip-path="url(#id_0)" d="M526.53174 458.03534C526.53174 459.6922 525.1886 461.03534 523.53174 461.03534C521.8749 461.03534 520.53174 459.6922 520.53174 458.03534C520.53174 456.37848 521.8749 455.03534 523.53174 455.03534C525.1886 455.03534 526.53174 456.37848 526.53174 458.03534Z" fill-rule="nonzero"/><path fill="#000000" fill-opacity="0.0" clip-path="url(#id_0)" d="M540.71906 463.3923C540.71906 465.04916 539.3759 466.3923 537.71906 466.3923C536.0622 466.3923 534.71906 465.04916 534.71906 463.3923C534.71906 461.73547 536.0622 460.3923 537.71906 460.3923C539.3759 460.3923 540.71906 461.73547 540.71906 463.3923Z" fill-rule="nonzero"/><path fill="#000000" fill-opacity="0.0" clip-path="url(#id_0)" d="M554.9064 457.607C554.9064 459.26385 553.56323 460.607 551.9064 460.607C550.2495 460.607 548.9064 459.26385 548.9064 457.607C548.9064 455.95013 550.2495 454.607 551.9064 454.607C553.56323 454.607 554.9064 455.95013 554.9064 457.607Z" fill-rule="nonzero"/><path fill="#000000" fill-opacity="0.0" clip-path="url(#id_0)" d="M569.0936 470.33932C569.0936 471.9962 567.7505 473.33932 566.0936 473.33932C564.43677 473.33932 563.0936 471.9962 563.0936 470.33932C563.0936 468.68246 564.43677 467.33932 566.0936 467.33932C567.7505 467.33932 569.0936 468.68246 569.0936 470.33932Z" fill-rule="nonzero"/><path fill="#000000" fill-opacity="0.0" clip-path="url(#id_0)" d="M583.28094 472.6421C583.28094 474.29895 581.9378 475.6421 580.28094 475.6421C578.6241 475.6421 577.28094 474.29895 577.28094 472.6421C577.28094 470.98523 578.6241 469.6421 580.28094 469.6421C581.9378 469.6421 583.28094 470.98523 583.28094 472.6421Z" fill-rule="nonzero"/><path fill="#000000" fill-opacity="0.0" clip-path="url(#id_0)" d="M597.46826 479.7837C597.46826 481.44055 596.1251 482.7837 594.46826 482.7837C592.8114 482.7837 591.46826 481.44055 591.46826 479.7837C591.46826 478.12683 592.8114 476.7837 594.46826 476.7837C596.1251 476.7837 597.46826 478.12683 597.46826 479.7837Z" fill-rule="nonzero"/><path fill="#000000" fill-opacity="0.0" clip-path="url(#id_0)" d="M611.6556 475.17438C611.6556 476.83124 610.31244 478.17438 608.6556 478.17438C606.9987 478.17438 605.6556 476.83124 605.6556 475.17438C605.6556 473.51755 606.9987 472.17438 608.6556 472.17438C610.31244 472.17438 611.6556 473.51755 611.6556 475.17438Z" fill-rule="nonzero"/><path fill="#000000" fill-opacity="0.0" clip-path="url(#id_0)" d="M625.84283 483.76263C625.84283 485.4195 624.4997 486.76263 622.84283 486.76263C621.186 486.76263 619.84283 485.4195 619.84283 483.76263C619.84283 482.10577 621.186 480.76263 622.84283 480.76263C624.4997 480.76263 625.84283 482.10577 625.84283 483.76263Z" fill-rule="nonzero"/><path fill="#000000" fill-opacity="0.0" clip-path="url(#id_0)" d="M640.03015 485.13242C640.03015 486.78925 638.687 488.13242 637.03015 488.13242C635.3733 488.13242 634.03015 486.78925 634.03015 485.13242C634.03015 483.47556 635.3733 482.13242 637.03015 482.13242C638.687 482.13242 640.03015 483.47556 640.03015 485.13242Z" fill-rule="nonzero"/><path fill="#000000" fill-opacity="0.0" clip-path="url(#id_0)" d="M654.21747 498.4953C654.21747 500.15216 652.8743 501.4953 651.21747 501.4953C649.5606 501.4953 648.21747 500.15216 648.21747 498.4953C648.21747 496.83844 649.5606 495.4953 651.21747 495.4953C652.8743 495.4953 654.21747 496.83844 654.21747 498.4953Z" fill-rule="nonzero"/><path fill="#000000" fill-opacity="0.0" clip-path="url(#id_0)" d="M668.4048 499.84393C668.4048 501.5008 667.06165 502.84393 665.4048 502.84393C663.7479 502.84393 662.4048 501.5008 662.4048 499.84393C662.4048 498.1871 663.7479 496.84393 665.4048 496.84393C667.06165 496.84393 668.4048 498.1871 668.4048 499.84393Z" fill-rule="nonzero"/><path fill="#000000" fill-opacity="0.0" clip-path="url(#id_0)" d="M682.59204 499.80478C682.59204 501.4616 681.2489 502.80478 679.59204 502.80478C677.9352 502.80478 676.59204 501.4616 676.59204 499.80478C676.59204 498.14792 677.9352 496.80478 679.59204 496.80478C681.2489 496.80478 682.59204 498.14792 682.59204 499.80478Z" fill-rule="nonzero"/><path fill="#000000" fill-opacity="0.0" clip-path="url(#id_0)" d="M696.77936 509.03674C696.77936 510.6936 695.4362 512.03674 693.77936 512.03674C692.1225 512.03674 690.77936 510.6936 690.77936 509.03674C690.77936 507.37988 692.1225 506.03674 693.77936 506.03674C695.4362 506.03674 696.77936 507.37988 696.77936 509.03674Z" fill-rule="nonzero"/><path fill="#000000" fill-opacity="0.0" clip-path="url(#id_0)" d="M710.9667 495.19296C710.9667 496.84982 709.62354 498.19296 707.9667 498.19296C706.3098 498.19296 704.9667 496.84982 704.9667 495.19296C704.9667 493.5361 706.3098 492.19296 707.9667 492.19296C709.62354 492.19296 710.9667 493.5361 710.9667 495.19296Z" fill-rule="nonzero"/><path fill="#000000" fill-opacity="0.0" clip-path="url(#id_0)" d="M725.154 496.79898C725.154 498.45584 723.81085 499.79898 722.154 499.79898C720.49713 499.79898 719.154 498.45584 719.154 496.79898C719.154 495.14212 720.49713 493.79898 722.154 493.79898C723.81085 493.79898 725.154 495.14212 725.154 496.79898Z" fill-rule="nonzero"/><path fill="#000000" fill-opacity="0.0" clip-path="url(#id_0)" d="M739.34125 499.88907C739.34125 501.54593 737.9981 502.88907 736.34125 502.88907C734.6844 502.88907 733.34125 501.54593 733.34125 499.88907C733.34125 498.23224 734.6844 496.88907 736.34125 496.88907C737.9981 496.88907 739.34125 498.23224 739.34125 499.88907Z" fill-rule="nonzero"/><path fill="#000000" fill-opacity="0.0" clip-path="url(#id_0)" d="M753.52856 513.95996C753.52856 515.6168 752.1854 516.95996 750.52856 516.95996C748.8717 516.95996 747.52856 515.6168 747.52856 513.95996C747.52856 512.3031 748.8717 510.95993 750.52856 510.95993C752.1854 510.95993 753.52856 512.3031 753.52856 513.95996Z" fill-rule="nonzero"/><path fill="#000000" fill-opacity="0.0" clip-path="url(#id_0)" d="M767.7159 516.2853C767.7159 517.94214 766.37274 519.2853 764.7159 519.2853C763.059 519.2853 761.7159 517.94214 761.7159 516.2853C761.7159 514.6284 763.059 513.2853 764.7159 513.2853C766.37274 513.2853 767.7159 514.6284 767.7159 516.2853Z" fill-rule="nonzero"/><path fill="#000000" fill-opacity="0.0" clip-path="url(#id_0)" d="M781.9032 505.58707C781.9032 507.24393 780.56006 508.58707 778.9032 508.58707C777.24634 508.58707 775.9032 507.24393 775.9032 505.58707C775.9032 503.9302 777.24634 502.58707 778.9032 502.58707C780.56006 502.58707 781.9032 503.9302 781.9032 505.58707Z" fill-rule="nonzero"/><path fill="#000000" fill-opacity="0.0" clip-path="url(#id_0)" d="M796.09045 505.968C796.09045 507.62485 794.7473 508.968 793.09045 508.968C791.4336 508.968 790.09045 507.62485 790.09045 505.968C790.09045 504.31116 791.4336 502.968 793.09045 502.968C794.7473 502.968 796.09045 504.31116 796.09045 505.968Z" fill-rule="nonzero"/><path fill="#000000" fill-opacity="0.0" clip-path="url(#id_0)" d="M810.2778 506.57883C810.2778 508.2357 808.93463 509.57883 807.2778 509.57883C805.6209 509.57883 804.2778 508.2357 804.2778 506.57883C804.2778 504.922 805.6209 503.57883 807.2778 503.57883C808.93463 503.57883 810.2778 504.922 810.2778 506.57883Z" fill-rule="nonzero"/><path fill="#000000" fill-opacity="0.0" clip-path="url(#id_0)" d="M824.4651 510.83005C824.4651 512.4869 823.12195 513.83 821.4651 513.83C819.8082 513.83 818.4651 512.4869 818.4651 510.83005C818.4651 509.1732 819.8082 507.83005 821.4651 507.83005C823.12195 507.83005 824.4651 509.1732 824.4651 510.83005Z" fill-rule="nonzero"/><path fill="#000000" fill-opacity="0.0" clip-path="url(#id_0)" d="M838.6524 515.32184C838.6524 516.9787 837.30927 518.32184 835.6524 518.32184C833.99554 518.32184 832.6524 516.9787 832.6524 515.32184C832.6524 513.665 833.99554 512.32184 835.6524 512.32184C837.30927 512.32184 838.6524 513.665 838.6524 515.32184Z" fill-rule="nonzero"/><path fill="#000000" fill-opacity="0.0" clip-path="url(#id_0)" d="M852.83966 526.06854C852.83966 527.7254 851.4965 529.06854 849.83966 529.06854C848.1828 529.06854 846.83966 527.7254 846.83966 526.06854C846.83966 524.4117 848.1828 523.06854 849.83966 523.06854C851.4965 523.06854 852.83966 524.4117 852.83966 526.06854Z" fill-rule="nonzero"/><path fill="#000000" fill-opacity="0.0" clip-path="url(#id_0)" d="M867.027 515.29236C867.027 516.9492 865.68384 518.29236 864.027 518.29236C862.3701 518.29236 861.027 516.9492 861.027 515.29236C861.027 513.63556 862.3701 512.29236 864.027 512.29236C865.68384 512.29236 867.027 513.63556 867.027 515.29236Z" fill-rule="nonzero"/><path fill="#000000" fill-opacity="0.0" clip-path="url(#id_0)" d="M881.2143 515.5215C881.2143 517.17834 879.87115 518.5215 878.2143 518.5215C876.55743 518.5215 875.2143 517.17834 875.2143 515.5215C875.2143 513.8646 876.55743 512.5215 878.2143 512.5215C879.87115 512.5215 881.2143 513.8646 881.2143 515.5215Z" fill-rule="nonzero"/><path fill="#000000" fill-opacity="0.0" clip-path="url(#id_0)" d="M895.4016 515.3463C895.4016 517.0032 894.0585 518.3463 892.4016 518.3463C890.74475 518.3463 889.4016 517.0032 889.4016 515.3463C889.4016 513.68945 890.74475 512.3463 892.4016 512.3463C894.0585 512.3463 895.4016 513.68945 895.4016 515.3463Z" fill-rule="nonzero"/><path fill="#000000" fill-opacity="0.0" clip-path="url(#id_0)" d="M909.58887 519.2255C909.58887 520.8824 908.2457 522.2255 906.58887 522.2255C904.932 522.2255 903.58887 520.8824 903.58887 519.2255C903.58887 517.56866 904.932 516.2255 906.58887 516.2255C908.2457 516.2255 909.58887 517.56866 909.58887 519.2255Z" fill-rule="nonzero"/><path fill="#000000" fill-opacity="0.0" clip-path="url(#id_0)" d="M923.7762 518.28406C923.7762 519.9409 922.43304 521.28406 920.7762 521.28406C919.1193 521.28406 917.7762 519.9409 917.7762 518.28406C917.7762 516.6272 919.1193 515.28406 920.7762 515.28406C922.43304 515.28406 923.7762 516.6272 923.7762 518.28406Z" fill-rule="nonzero"/><path fill="#000000" fill-opacity="0.0" clip-path="url(#id_0)" d="M937.9635 520.43054C937.9635 522.0874 936.62036 523.43054 934.9635 523.43054C933.30664 523.43054 931.9635 522.0874 931.9635 520.43054C931.9635 518.7737 933.30664 517.43054 934.9635 517.43054C936.62036 517.43054 937.9635 518.7737 937.9635 520.43054Z" fill-rule="nonzero"/><path fill="#000000" fill-opacity="0.0" clip-path="url(#id_0)" d="M952.1508 533.647C952.1508 535.30383 950.8077 536.647 949.1508 536.647C947.49396 536.647 946.1508 535.30383 946.1508 533.647C946.1508 531.9902 947.49396 530.647 949.1508 530.647C950.8077 530.647 952.1508 531.9902 952.1508 533.647Z" fill-rule="nonzero"/><path fill="#000000" fill-opacity="0.0" clip-path="url(#id_0)" d="M966.3381 523.9882C966.3381 525.6451 964.99493 526.9882 963.3381 526.9882C961.6812 526.9882 960.3381 525.6451 960.3381 523.9882C960.3381 522.33136 961.6812 520.9882 963.3381 520.9882C964.99493 520.9882 966.3381 522.33136 966.3381 523.9882Z" fill-rule="nonzero"/><path fill="#000000" fill-opacity="0.0" clip-path="url(#id_0)" d="M980.5254 525.7747C980.5254 527.4316 979.18225 528.7747 977.5254 528.7747C975.8685 528.7747 974.5254 527.4316 974.5254 525.7747C974.5254 524.11786 975.8685 522.7747 977.5254 522.7747C979.18225 522.7747 980.5254 524.11786 980.5254 525.7747Z" fill-rule="nonzero"/><path fill="#000000" fill-opacity="0.0" clip-path="url(#id_0)" d="M994.7127 527.82544C994.7127 529.4823 993.36957 530.82544 991.7127 530.82544C990.05585 530.82544 988.7127 529.4823 988.7127 527.82544C988.7127 526.1686 990.05585 524.82544 991.7127 524.82544C993.36957 524.82544 994.7127 526.1686 994.7127 527.82544Z" fill-rule="nonzero"/><path fill="#000000" fill-opacity="0.0" clip-path="url(#id_0)" d="M1008.9 527.6103C1008.9 529.26715 1007.5569 530.6103 1005.9 530.6103C1004.24316 530.6103 1002.9 529.26715 1002.9 527.6103C1002.9 525.9534 1004.24316 524.6103 1005.9 524.6103C1007.5569 524.6103 1008.9 525.9534 1008.9 527.6103Z" fill-rule="nonzero"/><path fill="#000000" d="M35.725025 398.90314L34.506275 398.90314L34.506275 397.84064L35.725025 397.84064L35.725025 398.90314ZM43.100025 398.90314L36.881275 398.90314L36.881275 397.84064L43.100025 397.84064L43.100025 398.90314ZM43.100025 395.90314L36.881275 395.90314L36.881275 394.96564L37.756275 394.96564Q36.74065 394.27814 36.74065 392.98126Q36.74065 392.41876 36.943775 391.95Q37.1469 391.46564 37.475025 391.23126Q37.80315 390.9969 38.24065 390.90314Q38.537525 390.85626 39.2719 390.85626L43.100025 390.85626L43.100025 391.90314L39.318775 391.90314Q38.662525 391.90314 38.350025 392.02814Q38.037525 392.15314 37.850025 392.46564Q37.6469 392.77814 37.6469 393.2Q37.6469 393.8719 38.0844 394.3719Q38.506275 394.85626 39.693775 394.85626L43.100025 394.85626L43.100025 395.90314ZM43.100025 387.1844L36.881275 389.54376L36.881275 388.4344L40.600025 387.09064Q41.2094 386.8875 41.850025 386.7Q41.36565 386.5594 40.67815 386.3094L36.881275 384.91876L36.881275 383.84064L43.100025 386.2L43.100025 387.1844ZM39.99065 384.29376Q38.256275 384.29376 37.42815 383.34064Q36.74065 382.54376 36.74065 381.3875Q36.74065 380.10626 37.5844 379.29376Q38.412525 378.46564 39.8969 378.46564Q41.100025 378.46564 41.787525 378.825Q42.475025 379.1844 42.86565 379.8875Q43.24065 380.575 43.24065 381.3875Q43.24065 382.6844 42.412525 383.4969Q41.568775 384.29376 39.99065 384.29376ZM39.99065 383.21564Q41.17815 383.21564 41.7719 382.7Q42.36565 382.16876 42.36565 381.3875Q42.36565 380.59064 41.7719 380.075Q41.17815 379.5594 39.9594 379.5594Q38.80315 379.5594 38.2094 380.09064Q37.61565 380.60626 37.61565 381.3875Q37.61565 382.16876 38.2094 382.7Q38.787525 383.21564 39.99065 383.21564ZM40.818775 372.84064L40.9594 371.8094Q42.0219 371.98126 42.631275 372.6844Q43.24065 373.3875 43.24065 374.40314Q43.24065 375.6844 42.412525 376.46564Q41.568775 377.23126 40.006275 377.23126Q39.006275 377.23126 38.256275 376.90314Q37.49065 376.5594 37.11565 375.8875Q36.74065 375.2 36.74065 374.3875Q36.74065 373.3875 37.256275 372.7469Q37.756275 372.09064 38.7094 371.90314L38.86565 372.9344Q38.24065 373.075 37.92815 373.45Q37.600025 373.825 37.600025 374.35626Q37.600025 375.15314 38.17815 375.65314Q38.74065 376.15314 39.975025 376.15314Q41.24065 376.15314 41.80315 375.66876Q42.36565 375.1844 42.36565 374.41876Q42.36565 373.79376 41.99065 373.3875Q41.61565 372.96564 40.818775 372.84064ZM42.3344 366.84064Q42.8344 367.4344 43.037525 367.98126Q43.24065 368.5125 43.24065 369.1375Q43.24065 370.16876 42.74065 370.71564Q42.24065 371.2625 41.4594 371.2625Q41.006275 371.2625 40.631275 371.0594Q40.24065 370.85626 40.0219 370.5125Q39.787525 370.16876 39.67815 369.7469Q39.5844 369.45 39.506275 368.8094Q39.36565 367.54376 39.1469 366.9344Q38.92815 366.9344 38.881275 366.9344Q38.225025 366.9344 37.9594 367.23126Q37.61565 367.6375 37.61565 368.4344Q37.61565 369.16876 37.881275 369.52814Q38.131275 369.8875 38.787525 370.0594L38.6469 371.09064Q37.99065 370.95 37.5844 370.6219Q37.17815 370.29376 36.9594 369.6844Q36.74065 369.075 36.74065 368.27814Q36.74065 367.48126 36.92815 366.98126Q37.11565 366.48126 37.3969 366.2469Q37.67815 366.0125 38.11565 365.91876Q38.381275 365.8719 39.0844 365.8719L40.49065 365.8719Q41.9594 365.8719 42.350025 365.8094Q42.74065 365.73126 43.100025 365.52814L43.100025 366.6375Q42.7719 366.79376 42.3344 366.84064ZM39.975025 366.9344Q40.2094 367.5125 40.381275 368.65314Q40.475025 369.3094 40.600025 369.575Q40.7094 369.84064 40.92815 369.9969Q41.1469 370.1375 41.42815 370.1375Q41.850025 370.1375 42.131275 369.825Q42.412525 369.4969 42.412525 368.8875Q42.412525 368.27814 42.1469 367.8094Q41.881275 367.325 41.412525 367.10626Q41.05315 366.9344 40.36565 366.9344L39.975025 366.9344ZM42.162525 361.60626L43.0844 361.45Q43.17815 361.90314 43.17815 362.2469Q43.17815 362.825 43.006275 363.1375Q42.818775 363.45 42.5219 363.59064Q42.225025 363.71564 41.2719 363.71564L37.693775 363.71564L37.693775 364.48126L36.881275 364.48126L36.881275 363.71564L35.3344 363.71564L34.7094 362.66876L36.881275 362.66876L36.881275 361.60626L37.693775 361.60626L37.693775 362.66876L41.3344 362.66876Q41.787525 362.66876 41.912525 362.6219Q42.037525 362.5594 42.11565 362.4344Q42.193775 362.3094 42.193775 362.075Q42.193775 361.8875 42.162525 361.60626ZM35.725025 360.90314L34.506275 360.90314L34.506275 359.84064L35.725025 359.84064L35.725025 360.90314ZM43.100025 360.90314L36.881275 360.90314L36.881275 359.84064L43.100025 359.84064L43.100025 360.90314ZM39.99065 358.29376Q38.256275 358.29376 37.42815 357.34064Q36.74065 356.54376 36.74065 355.3875Q36.74065 354.10626 37.5844 353.29376Q38.412525 352.46564 39.8969 352.46564Q41.100025 352.46564 41.787525 352.825Q42.475025 353.1844 42.86565 353.8875Q43.24065 354.575 43.24065 355.3875Q43.24065 356.6844 42.412525 357.4969Q41.568775 358.29376 39.99065 358.29376ZM39.99065 357.21564Q41.17815 357.21564 41.7719 356.7Q42.36565 356.16876 42.36565 355.3875Q42.36565 354.59064 41.7719 354.075Q41.17815 353.5594 39.9594 353.5594Q38.80315 353.5594 38.2094 354.09064Q37.61565 354.60626 37.61565 355.3875Q37.61565 356.16876 38.2094 356.7Q38.787525 357.21564 39.99065 357.21564ZM43.100025 350.90314L36.881275 350.90314L36.881275 349.96564L37.756275 349.96564Q36.74065 349.27814 36.74065 347.98126Q36.74065 347.41876 36.943775 346.95Q37.1469 346.46564 37.475025 346.23126Q37.80315 345.9969 38.24065 345.90314Q38.537525 345.85626 39.2719 345.85626L43.100025 345.85626L43.100025 346.90314L39.318775 346.90314Q38.662525 346.90314 38.350025 347.02814Q38.037525 347.15314 37.850025 347.46564Q37.6469 347.77814 37.6469 348.2Q37.6469 348.8719 38.0844 349.3719Q38.506275 349.85626 39.693775 349.85626L43.100025 349.85626L43.100025 350.90314ZM43.100025 340.77814L34.506275 340.77814L34.506275 337.8094Q34.506275 336.8094 34.631275 336.27814Q34.80315 335.54376 35.24065 335.02814Q35.818775 334.34064 36.725025 334.0125Q37.61565 333.66876 38.756275 333.66876Q39.74065 333.66876 40.49065 333.90314Q41.24065 334.1219 41.74065 334.48126Q42.24065 334.84064 42.5219 335.27814Q42.80315 335.7 42.9594 336.29376Q43.100025 336.8875 43.100025 337.66876L43.100025 340.77814ZM42.0844 339.6375L42.0844 337.8094Q42.0844 336.95 41.92815 336.46564Q41.7719 335.98126 41.475025 335.7Q41.0844 335.29376 40.3969 335.075Q39.7094 334.84064 38.74065 334.84064Q37.3969 334.84064 36.67815 335.29376Q35.943775 335.73126 35.693775 336.35626Q35.5219 336.825 35.5219 337.825L35.5219 339.6375L42.0844 339.6375ZM41.100025 327.65314L41.225025 326.5594Q42.17815 326.8094 42.7094 327.5125Q43.24065 328.21564 43.24065 329.29376Q43.24065 330.65314 42.3969 331.46564Q41.55315 332.2625 40.037525 332.2625Q38.475025 332.2625 37.61565 331.45Q36.74065 330.6375 36.74065 329.35626Q36.74065 328.10626 37.5844 327.325Q38.42815 326.52814 39.975025 326.52814Q40.068775 326.52814 40.256275 326.52814L40.256275 331.16876Q41.287525 331.10626 41.8344 330.59064Q42.36565 330.075 42.36565 329.29376Q42.36565 328.71564 42.068775 328.3094Q41.756275 327.8875 41.100025 327.65314ZM39.3969 331.10626L39.3969 327.6375Q38.600025 327.7 38.2094 328.02814Q37.600025 328.54376 37.600025 329.34064Q37.600025 330.075 38.0844 330.575Q38.568775 331.0594 39.3969 331.10626ZM40.818775 320.84064L40.9594 319.8094Q42.0219 319.98126 42.631275 320.6844Q43.24065 321.3875 43.24065 322.40314Q43.24065 323.6844 42.412525 324.46564Q41.568775 325.23126 40.006275 325.23126Q39.006275 325.23126 38.256275 324.90314Q37.49065 324.5594 37.11565 323.8875Q36.74065 323.2 36.74065 322.3875Q36.74065 321.3875 37.256275 320.7469Q37.756275 320.09064 38.7094 319.90314L38.86565 320.9344Q38.24065 321.075 37.92815 321.45Q37.600025 321.825 37.600025 322.35626Q37.600025 323.15314 38.17815 323.65314Q38.74065 324.15314 39.975025 324.15314Q41.24065 324.15314 41.80315 323.66876Q42.36565 323.1844 42.36565 322.41876Q42.36565 321.79376 41.99065 321.3875Q41.61565 320.96564 40.818775 320.84064ZM43.100025 318.91876L36.881275 318.91876L36.881275 317.96564L37.818775 317.96564Q37.162525 317.60626 36.9594 317.3094Q36.74065 316.9969 36.74065 316.6219Q36.74065 316.09064 37.068775 315.54376L38.05315 315.90314Q37.818775 316.29376 37.818775 316.66876Q37.818775 317.02814 38.037525 317.3094Q38.24065 317.575 38.61565 317.6844Q39.17815 317.8719 39.8344 317.8719L43.100025 317.8719L43.100025 318.91876ZM41.100025 310.65314L41.225025 309.5594Q42.17815 309.8094 42.7094 310.5125Q43.24065 311.21564 43.24065 312.29376Q43.24065 313.65314 42.3969 314.46564Q41.55315 315.2625 40.037525 315.2625Q38.475025 315.2625 37.61565 314.45Q36.74065 313.6375 36.74065 312.35626Q36.74065 311.10626 37.5844 310.325Q38.42815 309.52814 39.975025 309.52814Q40.068775 309.52814 40.256275 309.52814L40.256275 314.16876Q41.287525 314.10626 41.8344 313.59064Q42.36565 313.075 42.36565 312.29376Q42.36565 311.71564 42.068775 311.3094Q41.756275 310.8875 41.100025 310.65314ZM39.3969 314.10626L39.3969 310.6375Q38.600025 310.7 38.2094 311.02814Q37.600025 311.54376 37.600025 312.34064Q37.600025 313.075 38.0844 313.575Q38.568775 314.0594 39.3969 314.10626ZM42.3344 303.84064Q42.8344 304.4344 43.037525 304.98126Q43.24065 305.5125 43.24065 306.1375Q43.24065 307.16876 42.74065 307.71564Q42.24065 308.2625 41.4594 308.2625Q41.006275 308.2625 40.631275 308.0594Q40.24065 307.85626 40.0219 307.5125Q39.787525 307.16876 39.67815 306.7469Q39.5844 306.45 39.506275 305.8094Q39.36565 304.54376 39.1469 303.9344Q38.92815 303.9344 38.881275 303.9344Q38.225025 303.9344 37.9594 304.23126Q37.61565 304.6375 37.61565 305.4344Q37.61565 306.16876 37.881275 306.52814Q38.131275 306.8875 38.787525 307.0594L38.6469 308.09064Q37.99065 307.95 37.5844 307.6219Q37.17815 307.29376 36.9594 306.6844Q36.74065 306.075 36.74065 305.27814Q36.74065 304.48126 36.92815 303.98126Q37.11565 303.48126 37.3969 303.2469Q37.67815 303.0125 38.11565 302.91876Q38.381275 302.8719 39.0844 302.8719L40.49065 302.8719Q41.9594 302.8719 42.350025 302.8094Q42.74065 302.73126 43.100025 302.52814L43.100025 303.6375Q42.7719 303.79376 42.3344 303.84064ZM39.975025 303.9344Q40.2094 304.5125 40.381275 305.65314Q40.475025 306.3094 40.600025 306.575Q40.7094 306.84064 40.92815 306.9969Q41.1469 307.1375 41.42815 307.1375Q41.850025 307.1375 42.131275 306.825Q42.412525 306.4969 42.412525 305.8875Q42.412525 305.27814 42.1469 304.8094Q41.881275 304.325 41.412525 304.10626Q41.05315 303.9344 40.36565 303.9344L39.975025 303.9344ZM41.24065 301.325L41.0844 300.29376Q41.7094 300.2 42.037525 299.8094Q42.36565 299.40314 42.36565 298.66876Q42.36565 297.95 42.0844 297.60626Q41.787525 297.2469 41.381275 297.2469Q41.0219 297.2469 40.818775 297.5594Q40.67815 297.77814 40.4594 298.6375Q40.162525 299.79376 39.9594 300.2469Q39.74065 300.6844 39.36565 300.91876Q38.99065 301.15314 38.5219 301.15314Q38.11565 301.15314 37.756275 300.96564Q37.3969 300.77814 37.162525 300.45Q36.99065 300.2 36.86565 299.77814Q36.74065 299.35626 36.74065 298.85626Q36.74065 298.1375 36.9594 297.59064Q37.162525 297.02814 37.5219 296.7625Q37.881275 296.4969 38.475025 296.40314L38.61565 297.4344Q38.1469 297.4969 37.881275 297.84064Q37.600025 298.16876 37.600025 298.79376Q37.600025 299.5125 37.850025 299.825Q38.0844 300.1375 38.412525 300.1375Q38.61565 300.1375 38.7719 300.0125Q38.943775 299.8719 39.05315 299.60626Q39.11565 299.45 39.318775 298.66876Q39.631275 297.54376 39.818775 297.10626Q40.006275 296.66876 40.36565 296.41876Q40.725025 296.16876 41.2719 296.16876Q41.80315 296.16876 42.2719 296.48126Q42.725025 296.77814 42.99065 297.35626Q43.24065 297.9344 43.24065 298.66876Q43.24065 299.8875 42.74065 300.52814Q42.225025 301.15314 41.24065 301.325ZM41.100025 289.65314L41.225025 288.5594Q42.17815 288.8094 42.7094 289.5125Q43.24065 290.21564 43.24065 291.29376Q43.24065 292.65314 42.3969 293.46564Q41.55315 294.2625 40.037525 294.2625Q38.475025 294.2625 37.61565 293.45Q36.74065 292.6375 36.74065 291.35626Q36.74065 290.10626 37.5844 289.325Q38.42815 288.52814 39.975025 288.52814Q40.068775 288.52814 40.256275 288.52814L40.256275 293.16876Q41.287525 293.10626 41.8344 292.59064Q42.36565 292.075 42.36565 291.29376Q42.36565 290.71564 42.068775 290.3094Q41.756275 289.8875 41.100025 289.65314ZM39.3969 293.10626L39.3969 289.6375Q38.600025 289.7 38.2094 290.02814Q37.600025 290.54376 37.600025 291.34064Q37.600025 292.075 38.0844 292.575Q38.568775 293.0594 39.3969 293.10626Z" fill-rule="nonzero"/><path fill="#000000" d="M78.6 602.66565Q78.6 601.1344 78.9125 600.2125Q79.225 599.275 79.83437 598.775Q80.45937 598.275 81.39687 598.275Q82.08437 598.275 82.6 598.5563Q83.13125 598.8375 83.475 599.3688Q83.81875 599.8844 84.00625 600.6344Q84.19375 601.3844 84.19375 602.66565Q84.19375 604.1813 83.88125 605.10315Q83.58437 606.025 82.95937 606.54065Q82.35 607.04065 81.39687 607.04065Q80.1625 607.04065 79.44375 606.15Q78.6 605.0875 78.6 602.66565ZM79.67812 602.66565Q79.67812 604.775 80.17812 605.47815Q80.67812 606.1813 81.39687 606.1813Q82.13125 606.1813 82.61562 605.47815Q83.11562 604.775 83.11562 602.66565Q83.11562 600.54065 82.61562 599.85315Q82.13125 599.15 81.38125 599.15Q80.6625 599.15 80.225 599.7594Q79.67812 600.54065 79.67812 602.66565ZM86.19375 606.9L86.19375 605.6969L87.39687 605.6969L87.39687 606.9L86.19375 606.9ZM88.6 602.66565Q88.6 601.1344 88.9125 600.2125Q89.225 599.275 89.83437 598.775Q90.45937 598.275 91.39687 598.275Q92.08437 598.275 92.6 598.5563Q93.13125 598.8375 93.475 599.3688Q93.81875 599.8844 94.00625 600.6344Q94.19375 601.3844 94.19375 602.66565Q94.19375 604.1813 93.88125 605.10315Q93.58437 606.025 92.95937 606.54065Q92.35 607.04065 91.39687 607.04065Q90.1625 607.04065 89.44375 606.15Q88.6 605.0875 88.6 602.66565ZM89.67812 602.66565Q89.67812 604.775 90.17812 605.47815Q90.67812 606.1813 91.39687 606.1813Q92.13125 606.1813 92.61562 605.47815Q93.11562 604.775 93.11562 602.66565Q93.11562 600.54065 92.61562 599.85315Q92.13125 599.15 91.38125 599.15Q90.6625 599.15 90.225 599.7594Q89.67812 600.54065 89.67812 602.66565ZM95.80312 600.3688Q95.80312 599.4469 96.25625 598.8063Q96.725 598.16565 97.6 598.16565Q98.4125 598.16565 98.94375 598.7438Q99.475 599.3219 99.475 600.4313Q99.475 601.525 98.92812 602.1188Q98.39687 602.6969 97.61562 602.6969Q96.83437 602.6969 96.31875 602.1188Q95.80312 601.54065 95.80312 600.3688ZM97.63125 598.8844Q97.24062 598.8844 96.975 599.22815Q96.725 599.5719 96.725 600.47815Q96.725 601.3063 96.975 601.65Q97.24062 601.97815 97.63125 601.97815Q98.0375 601.97815 98.2875 601.6344Q98.55312 601.29065 98.55312 600.4Q98.55312 599.5563 98.2875 599.22815Q98.02187 598.8844 97.63125 598.8844ZM97.63125 607.2125L102.33437 598.16565L103.19375 598.16565L98.50625 607.2125L97.63125 607.2125ZM101.35 604.8844Q101.35 603.9625 101.80312 603.3219Q102.27187 602.6813 103.1625 602.6813Q103.975 602.6813 104.50625 603.2594Q105.0375 603.8219 105.0375 604.9469Q105.0375 606.04065 104.49062 606.6344Q103.95937 607.2125 103.1625 607.2125Q102.39687 607.2125 101.86562 606.6344Q101.35 606.0563 101.35 604.8844ZM103.19375 603.4Q102.7875 603.4 102.52187 603.7438Q102.27187 604.0875 102.27187 604.9938Q102.27187 605.8063 102.5375 606.15Q102.80312 606.4938 103.19375 606.4938Q103.58437 606.4938 103.85 606.15Q104.11562 605.8063 104.11562 604.9Q104.11562 604.0719 103.85 603.7438Q103.58437 603.4 103.19375 603.4Z" fill-rule="nonzero"/><path fill="#000000" d="M77.14687 476.28436L77.14687 477.3L71.45937 477.3Q71.45937 476.925 71.58437 476.5656Q71.80312 475.9875 72.27187 475.425Q72.75625 474.8625 73.6625 474.1281Q75.06875 472.97186 75.55312 472.3Q76.05312 471.6281 76.05312 471.03436Q76.05312 470.40936 75.6 469.9875Q75.14687 469.55 74.42812 469.55Q73.6625 469.55 73.20937 470.0031Q72.75625 470.45624 72.74062 471.26874L71.6625 471.15936Q71.77187 469.9406 72.49062 469.3156Q73.225 468.675 74.45937 468.675Q75.69375 468.675 76.4125 469.3625Q77.13125 470.05 77.13125 471.0656Q77.13125 471.58124 76.9125 472.08124Q76.70937 472.5656 76.20937 473.1281Q75.725 473.675 74.6 474.6281Q73.64687 475.425 73.36562 475.72186Q73.1 476.0031 72.92812 476.28436L77.14687 476.28436ZM78.6 475.05L79.70937 474.95624Q79.83437 475.76874 80.27187 476.175Q80.725 476.58124 81.36562 476.58124Q82.11562 476.58124 82.64687 476.0031Q83.17812 475.425 83.17812 474.4875Q83.17812 473.58124 82.6625 473.0656Q82.1625 472.53436 81.33437 472.53436Q80.83437 472.53436 80.4125 472.76874Q80.00625 473.0031 79.77187 473.3625L78.7875 473.2375L79.61562 468.83124L83.89687 468.83124L83.89687 469.83124L80.45937 469.83124L80.00625 472.14374Q80.77187 471.59686 81.61562 471.59686Q82.74062 471.59686 83.50625 472.3781Q84.2875 473.15936 84.2875 474.39374Q84.2875 475.55 83.61562 476.40936Q82.7875 477.4406 81.36562 477.4406Q80.19375 477.4406 79.44375 476.78436Q78.70937 476.1281 78.6 475.05ZM86.19375 477.3L86.19375 476.09686L87.39687 476.09686L87.39687 477.3L86.19375 477.3ZM88.6 473.0656Q88.6 471.53436 88.9125 470.6125Q89.225 469.675 89.83437 469.175Q90.45937 468.675 91.39687 468.675Q92.08437 468.675 92.6 468.95624Q93.13125 469.2375 93.475 469.76874Q93.81875 470.28436 94.00625 471.03436Q94.19375 471.78436 94.19375 473.0656Q94.19375 474.58124 93.88125 475.5031Q93.58437 476.425 92.95937 476.9406Q92.35 477.4406 91.39687 477.4406Q90.1625 477.4406 89.44375 476.55Q88.6 475.4875 88.6 473.0656ZM89.67812 473.0656Q89.67812 475.175 90.17812 475.8781Q90.67812 476.58124 91.39687 476.58124Q92.13125 476.58124 92.61562 475.8781Q93.11562 475.175 93.11562 473.0656Q93.11562 470.9406 92.61562 470.2531Q92.13125 469.55 91.38125 469.55Q90.6625 469.55 90.225 470.15936Q89.67812 470.9406 89.67812 473.0656ZM95.80312 470.76874Q95.80312 469.84686 96.25625 469.20624Q96.725 468.5656 97.6 468.5656Q98.4125 468.5656 98.94375 469.14374Q99.475 469.72186 99.475 470.83124Q99.475 471.925 98.92812 472.51874Q98.39687 473.09686 97.61562 473.09686Q96.83437 473.09686 96.31875 472.51874Q95.80312 471.9406 95.80312 470.76874ZM97.63125 469.28436Q97.24062 469.28436 96.975 469.6281Q96.725 469.97186 96.725 470.8781Q96.725 471.70624 96.975 472.05Q97.24062 472.3781 97.63125 472.3781Q98.0375 472.3781 98.2875 472.03436Q98.55312 471.6906 98.55312 470.8Q98.55312 469.95624 98.2875 469.6281Q98.02187 469.28436 97.63125 469.28436ZM97.63125 477.6125L102.33437 468.5656L103.19375 468.5656L98.50625 477.6125L97.63125 477.6125ZM101.35 475.28436Q101.35 474.3625 101.80312 473.72186Q102.27187 473.08124 103.1625 473.08124Q103.975 473.08124 104.50625 473.65936Q105.0375 474.22186 105.0375 475.34686Q105.0375 476.4406 104.49062 477.03436Q103.95937 477.6125 103.1625 477.6125Q102.39687 477.6125 101.86562 477.03436Q101.35 476.45624 101.35 475.28436ZM103.19375 473.8Q102.7875 473.8 102.52187 474.14374Q102.27187 474.4875 102.27187 475.39374Q102.27187 476.20624 102.5375 476.55Q102.80312 476.89374 103.19375 476.89374Q103.58437 476.89374 103.85 476.55Q104.11562 476.20624 104.11562 475.3Q104.11562 474.47186 103.85 474.14374Q103.58437 473.8 103.19375 473.8Z" fill-rule="nonzero"/><path fill="#000000" d="M71.6 345.45L72.70937 345.35626Q72.83437 346.16876 73.27187 346.575Q73.725 346.98126 74.36562 346.98126Q75.11562 346.98126 75.64687 346.40314Q76.17812 345.825 76.17812 344.8875Q76.17812 343.98126 75.6625 343.46564Q75.1625 342.9344 74.33437 342.9344Q73.83437 342.9344 73.4125 343.16876Q73.00625 343.40314 72.77187 343.7625L71.7875 343.6375L72.61562 339.23126L76.89687 339.23126L76.89687 340.23126L73.45937 340.23126L73.00625 342.54376Q73.77187 341.9969 74.61562 341.9969Q75.74062 341.9969 76.50625 342.77814Q77.2875 343.5594 77.2875 344.79376Q77.2875 345.95 76.61562 346.8094Q75.7875 347.84064 74.36562 347.84064Q73.19375 347.84064 72.44375 347.1844Q71.70937 346.52814 71.6 345.45ZM78.6 343.46564Q78.6 341.9344 78.9125 341.0125Q79.225 340.075 79.83437 339.575Q80.45937 339.075 81.39687 339.075Q82.08437 339.075 82.6 339.35626Q83.13125 339.6375 83.475 340.16876Q83.81875 340.6844 84.00625 341.4344Q84.19375 342.1844 84.19375 343.46564Q84.19375 344.98126 83.88125 345.90314Q83.58437 346.825 82.95937 347.34064Q82.35 347.84064 81.39687 347.84064Q80.1625 347.84064 79.44375 346.95Q78.6 345.8875 78.6 343.46564ZM79.67812 343.46564Q79.67812 345.575 80.17812 346.27814Q80.67812 346.98126 81.39687 346.98126Q82.13125 346.98126 82.61562 346.27814Q83.11562 345.575 83.11562 343.46564Q83.11562 341.34064 82.61562 340.65314Q82.13125 339.95 81.38125 339.95Q80.6625 339.95 80.225 340.5594Q79.67812 341.34064 79.67812 343.46564ZM86.19375 347.7L86.19375 346.4969L87.39687 346.4969L87.39687 347.7L86.19375 347.7ZM88.6 343.46564Q88.6 341.9344 88.9125 341.0125Q89.225 340.075 89.83437 339.575Q90.45937 339.075 91.39687 339.075Q92.08437 339.075 92.6 339.35626Q93.13125 339.6375 93.475 340.16876Q93.81875 340.6844 94.00625 341.4344Q94.19375 342.1844 94.19375 343.46564Q94.19375 344.98126 93.88125 345.90314Q93.58437 346.825 92.95937 347.34064Q92.35 347.84064 91.39687 347.84064Q90.1625 347.84064 89.44375 346.95Q88.6 345.8875 88.6 343.46564ZM89.67812 343.46564Q89.67812 345.575 90.17812 346.27814Q90.67812 346.98126 91.39687 346.98126Q92.13125 346.98126 92.61562 346.27814Q93.11562 345.575 93.11562 343.46564Q93.11562 341.34064 92.61562 340.65314Q92.13125 339.95 91.38125 339.95Q90.6625 339.95 90.225 340.5594Q89.67812 341.34064 89.67812 343.46564ZM95.80312 341.16876Q95.80312 340.2469 96.25625 339.60626Q96.725 338.96564 97.6 338.96564Q98.4125 338.96564 98.94375 339.54376Q99.475 340.1219 99.475 341.23126Q99.475 342.325 98.92812 342.91876Q98.39687 343.4969 97.61562 343.4969Q96.83437 343.4969 96.31875 342.91876Q95.80312 342.34064 95.80312 341.16876ZM97.63125 339.6844Q97.24062 339.6844 96.975 340.02814Q96.725 340.3719 96.725 341.27814Q96.725 342.10626 96.975 342.45Q97.24062 342.77814 97.63125 342.77814Q98.0375 342.77814 98.2875 342.4344Q98.55312 342.09064 98.55312 341.2Q98.55312 340.35626 98.2875 340.02814Q98.02187 339.6844 97.63125 339.6844ZM97.63125 348.0125L102.33437 338.96564L103.19375 338.96564L98.50625 348.0125L97.63125 348.0125ZM101.35 345.6844Q101.35 344.7625 101.80312 344.1219Q102.27187 343.48126 103.1625 343.48126Q103.975 343.48126 104.50625 344.0594Q105.0375 344.6219 105.0375 345.7469Q105.0375 346.84064 104.49062 347.4344Q103.95937 348.0125 103.1625 348.0125Q102.39687 348.0125 101.86562 347.4344Q101.35 346.85626 101.35 345.6844ZM103.19375 344.2Q102.7875 344.2 102.52187 344.54376Q102.27187 344.8875 102.27187 345.79376Q102.27187 346.60626 102.5375 346.95Q102.80312 347.29376 103.19375 347.29376Q103.58437 347.29376 103.85 346.95Q104.11562 346.60626 104.11562 345.7Q104.11562 344.8719 103.85 344.54376Q103.58437 344.2 103.19375 344.2Z" fill-rule="nonzero"/><path fill="#000000" d="M71.6625 210.63126L71.6625 209.61563L77.225 209.61563L77.225 210.44376Q76.4125 211.31876 75.6 212.77188Q74.80312 214.20938 74.36562 215.74063Q74.0375 216.81876 73.95937 218.1L72.86562 218.1Q72.88125 217.08438 73.25625 215.64688Q73.64687 214.20938 74.35 212.88126Q75.06875 211.55313 75.88125 210.63126L71.6625 210.63126ZM78.6 215.85L79.70937 215.75626Q79.83437 216.56876 80.27187 216.975Q80.725 217.38126 81.36562 217.38126Q82.11562 217.38126 82.64687 216.80313Q83.17812 216.225 83.17812 215.2875Q83.17812 214.38126 82.6625 213.86563Q82.1625 213.33438 81.33437 213.33438Q80.83437 213.33438 80.4125 213.56876Q80.00625 213.80313 79.77187 214.1625L78.7875 214.0375L79.61562 209.63126L83.89687 209.63126L83.89687 210.63126L80.45937 210.63126L80.00625 212.94376Q80.77187 212.39688 81.61562 212.39688Q82.74062 212.39688 83.50625 213.17813Q84.2875 213.95938 84.2875 215.19376Q84.2875 216.35 83.61562 217.20938Q82.7875 218.24063 81.36562 218.24063Q80.19375 218.24063 79.44375 217.58438Q78.70937 216.92813 78.6 215.85ZM86.19375 218.1L86.19375 216.89688L87.39687 216.89688L87.39687 218.1L86.19375 218.1ZM88.6 213.86563Q88.6 212.33438 88.9125 211.4125Q89.225 210.475 89.83437 209.975Q90.45937 209.475 91.39687 209.475Q92.08437 209.475 92.6 209.75626Q93.13125 210.0375 93.475 210.56876Q93.81875 211.08438 94.00625 211.83438Q94.19375 212.58438 94.19375 213.86563Q94.19375 215.38126 93.88125 216.30313Q93.58437 217.225 92.95937 217.74063Q92.35 218.24063 91.39687 218.24063Q90.1625 218.24063 89.44375 217.35Q88.6 216.2875 88.6 213.86563ZM89.67812 213.86563Q89.67812 215.975 90.17812 216.67813Q90.67812 217.38126 91.39687 217.38126Q92.13125 217.38126 92.61562 216.67813Q93.11562 215.975 93.11562 213.86563Q93.11562 211.74063 92.61562 211.05313Q92.13125 210.35 91.38125 210.35Q90.6625 210.35 90.225 210.95938Q89.67812 211.74063 89.67812 213.86563ZM95.80312 211.56876Q95.80312 210.64688 96.25625 210.00626Q96.725 209.36563 97.6 209.36563Q98.4125 209.36563 98.94375 209.94376Q99.475 210.52188 99.475 211.63126Q99.475 212.725 98.92812 213.31876Q98.39687 213.89688 97.61562 213.89688Q96.83437 213.89688 96.31875 213.31876Q95.80312 212.74063 95.80312 211.56876ZM97.63125 210.08438Q97.24062 210.08438 96.975 210.42813Q96.725 210.77188 96.725 211.67813Q96.725 212.50626 96.975 212.85Q97.24062 213.17813 97.63125 213.17813Q98.0375 213.17813 98.2875 212.83438Q98.55312 212.49063 98.55312 211.6Q98.55312 210.75626 98.2875 210.42813Q98.02187 210.08438 97.63125 210.08438ZM97.63125 218.4125L102.33437 209.36563L103.19375 209.36563L98.50625 218.4125L97.63125 218.4125ZM101.35 216.08438Q101.35 215.1625 101.80312 214.52188Q102.27187 213.88126 103.1625 213.88126Q103.975 213.88126 104.50625 214.45938Q105.0375 215.02188 105.0375 216.14688Q105.0375 217.24063 104.49062 217.83438Q103.95937 218.4125 103.1625 218.4125Q102.39687 218.4125 101.86562 217.83438Q101.35 217.25626 101.35 216.08438ZM103.19375 214.6Q102.7875 214.6 102.52187 214.94376Q102.27187 215.2875 102.27187 216.19376Q102.27187 217.00626 102.5375 217.35Q102.80312 217.69376 103.19375 217.69376Q103.58437 217.69376 103.85 217.35Q104.11562 217.00626 104.11562 216.1Q104.11562 215.27188 103.85 214.94376Q103.58437 214.6 103.19375 214.6Z" fill-rule="nonzero"/><path fill="#000000" d="M68.56875 88.5L67.52187 88.5L67.52187 81.78125Q67.13125 82.140625 66.50625 82.515625Q65.89687 82.875 65.4125 83.046875L65.4125 82.03125Q66.2875 81.609375 66.94375 81.03125Q67.61562 80.4375 67.89687 79.875L68.56875 79.875L68.56875 88.5ZM71.6 84.265625Q71.6 82.734375 71.9125 81.8125Q72.225 80.875 72.83437 80.375Q73.45937 79.875 74.39687 79.875Q75.08437 79.875 75.6 80.15625Q76.13125 80.4375 76.475 80.96875Q76.81875 81.484375 77.00625 82.234375Q77.19375 82.984375 77.19375 84.265625Q77.19375 85.78125 76.88125 86.703125Q76.58437 87.625 75.95937 88.140625Q75.35 88.640625 74.39687 88.640625Q73.1625 88.640625 72.44375 87.75Q71.6 86.6875 71.6 84.265625ZM72.67812 84.265625Q72.67812 86.375 73.17812 87.078125Q73.67812 87.78125 74.39687 87.78125Q75.13125 87.78125 75.61562 87.078125Q76.11562 86.375 76.11562 84.265625Q76.11562 82.140625 75.61562 81.453125Q75.13125 80.75 74.38125 80.75Q73.6625 80.75 73.225 81.359375Q72.67812 82.140625 72.67812 84.265625ZM78.6 84.265625Q78.6 82.734375 78.9125 81.8125Q79.225 80.875 79.83437 80.375Q80.45937 79.875 81.39687 79.875Q82.08437 79.875 82.6 80.15625Q83.13125 80.4375 83.475 80.96875Q83.81875 81.484375 84.00625 82.234375Q84.19375 82.984375 84.19375 84.265625Q84.19375 85.78125 83.88125 86.703125Q83.58437 87.625 82.95937 88.140625Q82.35 88.640625 81.39687 88.640625Q80.1625 88.640625 79.44375 87.75Q78.6 86.6875 78.6 84.265625ZM79.67812 84.265625Q79.67812 86.375 80.17812 87.078125Q80.67812 87.78125 81.39687 87.78125Q82.13125 87.78125 82.61562 87.078125Q83.11562 86.375 83.11562 84.265625Q83.11562 82.140625 82.61562 81.453125Q82.13125 80.75 81.38125 80.75Q80.6625 80.75 80.225 81.359375Q79.67812 82.140625 79.67812 84.265625ZM86.19375 88.5L86.19375 87.296875L87.39687 87.296875L87.39687 88.5L86.19375 88.5ZM88.6 84.265625Q88.6 82.734375 88.9125 81.8125Q89.225 80.875 89.83437 80.375Q90.45937 79.875 91.39687 79.875Q92.08437 79.875 92.6 80.15625Q93.13125 80.4375 93.475 80.96875Q93.81875 81.484375 94.00625 82.234375Q94.19375 82.984375 94.19375 84.265625Q94.19375 85.78125 93.88125 86.703125Q93.58437 87.625 92.95937 88.140625Q92.35 88.640625 91.39687 88.640625Q90.1625 88.640625 89.44375 87.75Q88.6 86.6875 88.6 84.265625ZM89.67812 84.265625Q89.67812 86.375 90.17812 87.078125Q90.67812 87.78125 91.39687 87.78125Q92.13125 87.78125 92.61562 87.078125Q93.11562 86.375 93.11562 84.265625Q93.11562 82.140625 92.61562 81.453125Q92.13125 80.75 91.38125 80.75Q90.6625 80.75 90.225 81.359375Q89.67812 82.140625 89.67812 84.265625ZM95.80312 81.96875Q95.80312 81.046875 96.25625 80.40625Q96.725 79.765625 97.6 79.765625Q98.4125 79.765625 98.94375 80.34375Q99.475 80.921875 99.475 82.03125Q99.475 83.125 98.92812 83.71875Q98.39687 84.296875 97.61562 84.296875Q96.83437 84.296875 96.31875 83.71875Q95.80312 83.140625 95.80312 81.96875ZM97.63125 80.484375Q97.24062 80.484375 96.975 80.828125Q96.725 81.171875 96.725 82.078125Q96.725 82.90625 96.975 83.25Q97.24062 83.578125 97.63125 83.578125Q98.0375 83.578125 98.2875 83.234375Q98.55312 82.890625 98.55312 82.0Q98.55312 81.15625 98.2875 80.828125Q98.02187 80.484375 97.63125 80.484375ZM97.63125 88.8125L102.33437 79.765625L103.19375 79.765625L98.50625 88.8125L97.63125 88.8125ZM101.35 86.484375Q101.35 85.5625 101.80312 84.921875Q102.27187 84.28125 103.1625 84.28125Q103.975 84.28125 104.50625 84.859375Q105.0375 85.421875 105.0375 86.546875Q105.0375 87.640625 104.49062 88.234375Q103.95937 88.8125 103.1625 88.8125Q102.39687 88.8125 101.86562 88.234375Q101.35 87.65625 101.35 86.484375ZM103.19375 85.0Q102.7875 85.0 102.52187 85.34375Q102.27187 85.6875 102.27187 86.59375Q102.27187 87.40625 102.5375 87.75Q102.80312 88.09375 103.19375 88.09375Q103.58437 88.09375 103.85 87.75Q104.11562 87.40625 104.11562 86.5Q104.11562 85.671875 103.85 85.34375Q103.58437 85.0 103.19375 85.0Z" fill-rule="nonzero"/><path fill="#757575" d="M33.428123 38.803123L33.428123 36.7875L35.19375 36.7875L35.19375 38.803123L33.428123 38.803123ZM33.428123 51.1L33.428123 40.725L35.19375 40.725L35.19375 51.1L33.428123 51.1ZM37.4125 51.1L37.4125 40.725L39.00625 40.725L39.00625 42.209373Q40.146873 40.490623 42.303123 40.490623Q43.240623 40.490623 44.021873 40.834373Q44.81875 41.1625 45.209373 41.709373Q45.6 42.25625 45.75625 43.00625Q45.85 43.50625 45.85 44.725L45.85 51.1L44.084373 51.1L44.084373 44.7875Q44.084373 43.709373 43.88125 43.178123Q43.678123 42.646873 43.146873 42.334373Q42.63125 42.021873 41.928123 42.021873Q40.803123 42.021873 39.990623 42.740623Q39.178123 43.44375 39.178123 45.428123L39.178123 51.1L37.4125 51.1ZM50.303123 51.1L46.35 40.725L48.209373 40.725L50.44375 46.94375Q50.803123 47.94375 51.1 49.021873Q51.334373 48.209373 51.75625 47.053123L54.053123 40.725L55.865623 40.725L51.94375 51.1L50.303123 51.1ZM55.771873 45.9125Q55.771873 43.0375 57.365623 41.646873Q58.709373 40.490623 60.63125 40.490623Q62.771873 40.490623 64.11562 41.896873Q65.475 43.303123 65.475 45.771873Q65.475 47.771873 64.88125 48.928123Q64.2875 50.06875 63.13125 50.709373Q61.990623 51.334373 60.63125 51.334373Q58.44375 51.334373 57.1 49.94375Q55.771873 48.5375 55.771873 45.9125ZM57.56875 45.9125Q57.56875 47.9125 58.428123 48.896873Q59.303123 49.88125 60.63125 49.88125Q61.94375 49.88125 62.803123 48.896873Q63.678123 47.896873 63.678123 45.85Q63.678123 43.928123 62.803123 42.94375Q61.928123 41.94375 60.63125 41.94375Q59.303123 41.94375 58.428123 42.94375Q57.56875 43.928123 57.56875 45.9125ZM74.19375 47.303123L75.9125 47.521873Q75.63125 49.31875 74.45937 50.334373Q73.30312 51.334373 71.6 51.334373Q69.475 51.334373 68.17812 49.94375Q66.88125 48.553123 66.88125 45.959373Q66.88125 44.271873 67.42812 43.021873Q67.99062 41.75625 69.13125 41.13125Q70.27187 40.490623 71.61562 40.490623Q73.30312 40.490623 74.36562 41.35Q75.44375 42.209373 75.75625 43.771873L74.0375 44.0375Q73.80312 42.990623 73.17812 42.475Q72.55312 41.94375 71.67812 41.94375Q70.35 41.94375 69.52187 42.896873Q68.69375 43.85 68.69375 45.896873Q68.69375 47.990623 69.49062 48.94375Q70.2875 49.88125 71.58437 49.88125Q72.61562 49.88125 73.30312 49.25625Q74.00625 48.615623 74.19375 47.303123ZM84.19375 49.81875Q83.20937 50.646873 82.30312 50.990623Q81.39687 51.334373 80.36562 51.334373Q78.6625 51.334373 77.74062 50.50625Q76.81875 49.6625 76.81875 48.365623Q76.81875 47.6 77.1625 46.975Q77.52187 46.35 78.08437 45.975Q78.64687 45.584373 79.35 45.38125Q79.86562 45.25625 80.9125 45.115623Q83.0375 44.865623 84.0375 44.521873Q84.05312 44.1625 84.05312 44.053123Q84.05312 42.990623 83.55312 42.5375Q82.88125 41.94375 81.55312 41.94375Q80.30312 41.94375 79.70937 42.38125Q79.13125 42.81875 78.85 43.928123L77.13125 43.69375Q77.36562 42.584373 77.89687 41.9125Q78.42812 41.225 79.44375 40.865623Q80.45937 40.490623 81.80312 40.490623Q83.13125 40.490623 83.95937 40.803123Q84.7875 41.115623 85.17812 41.6Q85.56875 42.06875 85.725 42.7875Q85.81875 43.240623 85.81875 44.4125L85.81875 46.75625Q85.81875 49.209373 85.92812 49.865623Q86.0375 50.50625 86.38125 51.1L84.5375 51.1Q84.27187 50.553123 84.19375 49.81875ZM84.0375 45.896873Q83.08437 46.2875 81.1625 46.553123Q80.08437 46.709373 79.63125 46.9125Q79.19375 47.1 78.94375 47.475Q78.69375 47.85 78.69375 48.31875Q78.69375 49.021873 79.225 49.490623Q79.75625 49.959373 80.7875 49.959373Q81.80312 49.959373 82.58437 49.521873Q83.38125 49.06875 83.75625 48.303123Q84.0375 47.69375 84.0375 46.5375L84.0375 45.896873ZM92.25625 49.521873L92.50625 51.084373Q91.77187 51.240623 91.17812 51.240623Q90.225 51.240623 89.69375 50.94375Q89.17812 50.63125 88.95937 50.146873Q88.74062 49.646873 88.74062 48.06875L88.74062 42.1L87.45937 42.1L87.45937 40.725L88.74062 40.725L88.74062 38.1625L90.49062 37.1L90.49062 40.725L92.25625 40.725L92.25625 42.1L90.49062 42.1L90.49062 48.1625Q90.49062 48.9125 90.58437 49.13125Q90.67812 49.334373 90.88125 49.475Q91.1 49.6 91.49062 49.6Q91.77187 49.6 92.25625 49.521873ZM94.42812 38.803123L94.42812 36.7875L96.19375 36.7875L96.19375 38.803123L94.42812 38.803123ZM94.42812 51.1L94.42812 40.725L96.19375 40.725L96.19375 51.1L94.42812 51.1ZM97.77187 45.9125Q97.77187 43.0375 99.36562 41.646873Q100.70937 40.490623 102.63125 40.490623Q104.77187 40.490623 106.11562 41.896873Q107.475 43.303123 107.475 45.771873Q107.475 47.771873 106.88125 48.928123Q106.2875 50.06875 105.13125 50.709373Q103.99062 51.334373 102.63125 51.334373Q100.44375 51.334373 99.1 49.94375Q97.77187 48.5375 97.77187 45.9125ZM99.56875 45.9125Q99.56875 47.9125 100.42812 48.896873Q101.30312 49.88125 102.63125 49.88125Q103.94375 49.88125 104.80312 48.896873Q105.67812 47.896873 105.67812 45.85Q105.67812 43.928123 104.80312 42.94375Q103.92812 41.94375 102.63125 41.94375Q101.30312 41.94375 100.42812 42.94375Q99.56875 43.928123 99.56875 45.9125ZM109.4125 51.1L109.4125 40.725L111.00625 40.725L111.00625 42.209373Q112.14687 40.490623 114.30312 40.490623Q115.24062 40.490623 116.02187 40.834373Q116.81875 41.1625 117.20937 41.709373Q117.6 42.25625 117.75625 43.00625Q117.85 43.50625 117.85 44.725L117.85 51.1L116.08437 51.1L116.08437 44.7875Q116.08437 43.709373 115.88125 43.178123Q115.67812 42.646873 115.14687 42.334373Q114.63125 42.021873 113.92812 42.021873Q112.80312 42.021873 111.99062 42.740623Q111.17812 43.44375 111.17812 45.428123L111.17812 51.1L109.4125 51.1ZM125.64687 51.1L125.64687 36.7875L130.56876 36.7875Q132.24063 36.7875 133.13126 36.990623Q134.35 37.271873 135.225 38.00625Q136.35 38.975 136.9125 40.459373Q137.475 41.94375 137.475 43.865623Q137.475 45.490623 137.1 46.75625Q136.725 48.00625 136.11563 48.834373Q135.52188 49.6625 134.81876 50.146873Q134.11563 50.615623 133.11563 50.865623Q132.11563 51.1 130.80313 51.1L125.64687 51.1ZM127.5375 49.4125L130.6 49.4125Q132.00626 49.4125 132.80313 49.146873Q133.61563 48.88125 134.1 48.396873Q134.77188 47.725 135.14688 46.6Q135.52188 45.459373 135.52188 43.834373Q135.52188 41.584373 134.7875 40.38125Q134.05313 39.178123 132.99063 38.771873Q132.24063 38.475 130.55313 38.475L127.5375 38.475L127.5375 49.4125ZM146.52188 47.75625L148.33438 47.990623Q147.9125 49.56875 146.74063 50.459373Q145.58438 51.334373 143.77188 51.334373Q141.50626 51.334373 140.1625 49.94375Q138.83438 48.5375 138.83438 46.00625Q138.83438 43.38125 140.17813 41.94375Q141.52188 40.490623 143.67813 40.490623Q145.75626 40.490623 147.06876 41.9125Q148.39688 43.31875 148.39688 45.896873Q148.39688 46.053123 148.38126 46.365623L140.64688 46.365623Q140.74063 48.06875 141.61563 48.975Q142.49063 49.88125 143.7875 49.88125Q144.75626 49.88125 145.42813 49.38125Q146.11563 48.865623 146.52188 47.75625ZM140.74063 44.9125L146.5375 44.9125Q146.42813 43.615623 145.88126 42.959373Q145.0375 41.94375 143.69376 41.94375Q142.49063 41.94375 141.6625 42.75625Q140.83438 43.553123 140.74063 44.9125ZM157.19376 47.303123L158.9125 47.521873Q158.63126 49.31875 157.45938 50.334373Q156.30313 51.334373 154.6 51.334373Q152.475 51.334373 151.17813 49.94375Q149.88126 48.553123 149.88126 45.959373Q149.88126 44.271873 150.42813 43.021873Q150.99063 41.75625 152.13126 41.13125Q153.27188 40.490623 154.61563 40.490623Q156.30313 40.490623 157.36563 41.35Q158.44376 42.209373 158.75626 43.771873L157.0375 44.0375Q156.80313 42.990623 156.17813 42.475Q155.55313 41.94375 154.67813 41.94375Q153.35 41.94375 152.52188 42.896873Q151.69376 43.85 151.69376 45.896873Q151.69376 47.990623 152.49063 48.94375Q153.2875 49.88125 154.58438 49.88125Q155.61563 49.88125 156.30313 49.25625Q157.00626 48.615623 157.19376 47.303123ZM160.39688 51.1L160.39688 40.725L161.975 40.725L161.975 42.303123Q162.58438 41.19375 163.1 40.85Q163.61563 40.490623 164.225 40.490623Q165.11563 40.490623 166.0375 41.053123L165.42813 42.69375Q164.7875 42.303123 164.14688 42.303123Q163.56876 42.303123 163.1 42.6625Q162.64688 43.00625 162.44376 43.615623Q162.1625 44.553123 162.1625 45.6625L162.1625 51.1L160.39688 51.1ZM174.52188 47.75625L176.33438 47.990623Q175.9125 49.56875 174.74063 50.459373Q173.58438 51.334373 171.77188 51.334373Q169.50626 51.334373 168.1625 49.94375Q166.83438 48.5375 166.83438 46.00625Q166.83438 43.38125 168.17813 41.94375Q169.52188 40.490623 171.67813 40.490623Q173.75626 40.490623 175.06876 41.9125Q176.39688 43.31875 176.39688 45.896873Q176.39688 46.053123 176.38126 46.365623L168.64688 46.365623Q168.74063 48.06875 169.61563 48.975Q170.49063 49.88125 171.7875 49.88125Q172.75626 49.88125 173.42813 49.38125Q174.11563 48.865623 174.52188 47.75625ZM168.74063 44.9125L174.5375 44.9125Q174.42813 43.615623 173.88126 42.959373Q173.0375 41.94375 171.69376 41.94375Q170.49063 41.94375 169.6625 42.75625Q168.83438 43.553123 168.74063 44.9125ZM185.19376 49.81875Q184.20938 50.646873 183.30313 50.990623Q182.39688 51.334373 181.36563 51.334373Q179.6625 51.334373 178.74063 50.50625Q177.81876 49.6625 177.81876 48.365623Q177.81876 47.6 178.1625 46.975Q178.52188 46.35 179.08438 45.975Q179.64688 45.584373 180.35 45.38125Q180.86563 45.25625 181.9125 45.115623Q184.0375 44.865623 185.0375 44.521873Q185.05313 44.1625 185.05313 44.053123Q185.05313 42.990623 184.55313 42.5375Q183.88126 41.94375 182.55313 41.94375Q181.30313 41.94375 180.70938 42.38125Q180.13126 42.81875 179.85 43.928123L178.13126 43.69375Q178.36563 42.584373 178.89688 41.9125Q179.42813 41.225 180.44376 40.865623Q181.45938 40.490623 182.80313 40.490623Q184.13126 40.490623 184.95938 40.803123Q185.7875 41.115623 186.17813 41.6Q186.56876 42.06875 186.725 42.7875Q186.81876 43.240623 186.81876 44.4125L186.81876 46.75625Q186.81876 49.209373 186.92813 49.865623Q187.0375 50.50625 187.38126 51.1L185.5375 51.1Q185.27188 50.553123 185.19376 49.81875ZM185.0375 45.896873Q184.08438 46.2875 182.1625 46.553123Q181.08438 46.709373 180.63126 46.9125Q180.19376 47.1 179.94376 47.475Q179.69376 47.85 179.69376 48.31875Q179.69376 49.021873 180.225 49.490623Q180.75626 49.959373 181.7875 49.959373Q182.80313 49.959373 183.58438 49.521873Q184.38126 49.06875 184.75626 48.303123Q185.0375 47.69375 185.0375 46.5375L185.0375 45.896873ZM188.70938 48.00625L190.45938 47.725Q190.6 48.771873 191.27188 49.334373Q191.94376 49.88125 193.14688 49.88125Q194.35 49.88125 194.92813 49.396873Q195.52188 48.896873 195.52188 48.240623Q195.52188 47.646873 195.00626 47.303123Q194.64688 47.06875 193.20938 46.709373Q191.27188 46.209373 190.52188 45.865623Q189.7875 45.50625 189.39688 44.88125Q189.00626 44.240623 189.00626 43.475Q189.00626 42.7875 189.31876 42.19375Q189.64688 41.6 190.19376 41.209373Q190.6 40.9125 191.30313 40.709373Q192.02188 40.490623 192.83438 40.490623Q194.05313 40.490623 194.975 40.85Q195.89688 41.19375 196.33438 41.803123Q196.77188 42.396873 196.94376 43.396873L195.225 43.63125Q195.1 42.834373 194.5375 42.396873Q193.975 41.94375 192.95938 41.94375Q191.74063 41.94375 191.225 42.35Q190.70938 42.740623 190.70938 43.271873Q190.70938 43.615623 190.92813 43.896873Q191.13126 44.178123 191.6 44.365623Q191.86563 44.459373 193.14688 44.803123Q195.02188 45.303123 195.75626 45.63125Q196.49063 45.94375 196.9125 46.553123Q197.33438 47.146873 197.33438 48.053123Q197.33438 48.928123 196.81876 49.709373Q196.30313 50.490623 195.33438 50.9125Q194.36563 51.334373 193.14688 51.334373Q191.13126 51.334373 190.06876 50.490623Q189.00626 49.646873 188.70938 48.00625ZM206.52188 47.75625L208.33438 47.990623Q207.9125 49.56875 206.74063 50.459373Q205.58438 51.334373 203.77188 51.334373Q201.50626 51.334373 200.1625 49.94375Q198.83438 48.5375 198.83438 46.00625Q198.83438 43.38125 200.17813 41.94375Q201.52188 40.490623 203.67813 40.490623Q205.75626 40.490623 207.06876 41.9125Q208.39688 43.31875 208.39688 45.896873Q208.39688 46.053123 208.38126 46.365623L200.64688 46.365623Q200.74063 48.06875 201.61563 48.975Q202.49063 49.88125 203.7875 49.88125Q204.75626 49.88125 205.42813 49.38125Q206.11563 48.865623 206.52188 47.75625ZM200.74063 44.9125L206.5375 44.9125Q206.42813 43.615623 205.88126 42.959373Q205.0375 41.94375 203.69376 41.94375Q202.49063 41.94375 201.6625 42.75625Q200.83438 43.553123 200.74063 44.9125Z" fill-rule="nonzero"/></svg>